<svg width="147" height="146" viewBox="0 0 147 146" fill="none" xmlns="http://www.w3.org/2000/svg">
<path d="M91.8928 126.715C91.8928 116.718 83.7904 108.631 73.809 108.631C63.8276 108.631 55.7252 116.733 55.7252 126.715C55.7252 136.696 63.8276 144.799 73.809 144.799C83.7904 144.799 91.8928 136.696 91.8928 126.715Z" stroke="#FF999A" stroke-width="2.17952" stroke-linecap="round" stroke-linejoin="round"/>
<path d="M99.905 70.5093C125.024 79.5888 142.747 101.31 142.747 126.715H4.84106C4.84106 101.295 22.549 79.5737 47.683 70.5093H99.905Z" fill="#AB652B"/>
<path d="M73.809 50.7271C88.1498 50.7271 99.7697 62.9182 99.7697 77.9504H47.8182C47.8182 62.9182 59.4532 50.7271 73.809 50.7271Z" stroke="#AB652B" stroke-width="2.17952" stroke-linecap="round" stroke-linejoin="round"/>
<path d="M74 0L74 51" stroke="#AB652B" stroke-width="2.17952" stroke-linecap="round" stroke-linejoin="round"/>
<path d="M145.603 116.553H2" stroke="#FF999A" stroke-width="2.17952" stroke-linecap="round" stroke-linejoin="round"/>
</svg>
