<svg width="125" height="40" viewBox="0 0 125 40" fill="none" xmlns="http://www.w3.org/2000/svg">
<rect x="0.132385" width="22.5641" height="22.5641" rx="11.2821" fill="#824D22"/>
<rect x="0.132385" width="22.5641" height="22.5641" rx="11.2821" fill="#824D22"/>
<rect x="29.876" y="2.05127" width="9.23077" height="9.23077" rx="4.61538" fill="#824D22"/>
<rect x="19.6196" y="19.4871" width="20.5128" height="20.5128" rx="10.2564" fill="#311D0D"/>
<path d="M52.1324 29.7338V10.2662H55.659V26.7776H64.2331V29.7338H52.1324Z" fill="#311D0D"/>
<path d="M83.9313 20C83.9313 22.0976 83.5384 23.8942 82.7526 25.3897C81.9732 26.879 80.9085 28.0196 79.5587 28.8118C78.2152 29.6039 76.6912 30 74.9865 30C73.2818 30 71.7545 29.6039 70.4047 28.8118C69.0613 28.0133 67.9966 26.8695 67.2108 25.3802C66.4313 23.8847 66.0416 22.0913 66.0416 20C66.0416 17.9024 66.4313 16.109 67.2108 14.6198C67.9966 13.1242 69.0613 11.9804 70.4047 11.1882C71.7545 10.3961 73.2818 10 74.9865 10C76.6912 10 78.2152 10.3961 79.5587 11.1882C80.9085 11.9804 81.9732 13.1242 82.7526 14.6198C83.5384 16.109 83.9313 17.9024 83.9313 20ZM80.3857 20C80.3857 18.5234 80.1544 17.2782 79.6918 16.2643C79.2355 15.244 78.6018 14.474 77.7907 13.9544C76.9795 13.4284 76.0448 13.1654 74.9865 13.1654C73.9282 13.1654 72.9934 13.4284 72.1823 13.9544C71.3711 14.474 70.7343 15.244 70.2716 16.2643C69.8154 17.2782 69.5872 18.5234 69.5872 20C69.5872 21.4766 69.8154 22.725 70.2716 23.7452C70.7343 24.7592 71.3711 25.5292 72.1823 26.0551C72.9934 26.5748 73.9282 26.8346 74.9865 26.8346C76.0448 26.8346 76.9795 26.5748 77.7907 26.0551C78.6018 25.5292 79.2355 24.7592 79.6918 23.7452C80.1544 22.725 80.3857 21.4766 80.3857 20Z" fill="#311D0D"/>
<path d="M100.307 16.4829C100.149 15.9696 99.9302 15.5101 99.6514 15.1046C99.3789 14.6926 99.0494 14.3409 98.6628 14.0494C98.2826 13.7579 97.8453 13.5393 97.351 13.3935C96.8567 13.2414 96.3181 13.1654 95.735 13.1654C94.6894 13.1654 93.7579 13.4284 92.9404 13.9544C92.1229 14.4804 91.4797 15.2535 91.0107 16.2738C90.5481 17.2877 90.3168 18.5234 90.3168 19.981C90.3168 21.4512 90.5481 22.6965 91.0107 23.7167C91.4733 24.737 92.1165 25.5133 92.9404 26.0456C93.7642 26.5716 94.7211 26.8346 95.8111 26.8346C96.7997 26.8346 97.6552 26.6445 98.3776 26.2643C99.1064 25.884 99.6672 25.3454 100.06 24.6483C100.453 23.9449 100.649 23.121 100.649 22.1768L101.448 22.3004H96.1628V19.5437H104.062V21.8821C104.062 23.5488 103.707 24.9905 102.997 26.2072C102.288 27.424 101.312 28.3619 100.07 29.0209C98.8276 29.6736 97.4017 30 95.7921 30C93.9987 30 92.4239 29.5976 91.0677 28.7928C89.7179 27.9816 88.6628 26.8314 87.9023 25.3422C87.1482 23.8466 86.7712 22.0722 86.7712 20.019C86.7712 18.4474 86.993 17.0437 87.4366 15.808C87.8865 14.5722 88.5139 13.5234 89.3187 12.6616C90.1235 11.7934 91.0677 11.1343 92.1514 10.6844C93.235 10.2281 94.4138 10 95.6875 10C96.7648 10 97.7693 10.1584 98.7008 10.4753C99.6324 10.7858 100.459 11.2294 101.182 11.8061C101.911 12.3828 102.509 13.0672 102.978 13.8593C103.447 14.6515 103.755 15.526 103.9 16.4829H100.307Z" fill="#311D0D"/>
<path d="M124.868 20C124.868 22.0976 124.475 23.8942 123.689 25.3897C122.909 26.879 121.845 28.0196 120.495 28.8118C119.152 29.6039 117.627 30 115.923 30C114.218 30 112.691 29.6039 111.341 28.8118C109.998 28.0133 108.933 26.8695 108.147 25.3802C107.368 23.8847 106.978 22.0913 106.978 20C106.978 17.9024 107.368 16.109 108.147 14.6198C108.933 13.1242 109.998 11.9804 111.341 11.1882C112.691 10.3961 114.218 10 115.923 10C117.627 10 119.152 10.3961 120.495 11.1882C121.845 11.9804 122.909 13.1242 123.689 14.6198C124.475 16.109 124.868 17.9024 124.868 20ZM121.322 20C121.322 18.5234 121.091 17.2782 120.628 16.2643C120.172 15.244 119.538 14.474 118.727 13.9544C117.916 13.4284 116.981 13.1654 115.923 13.1654C114.864 13.1654 113.93 13.4284 113.119 13.9544C112.307 14.474 111.671 15.244 111.208 16.2643C110.752 17.2782 110.524 18.5234 110.524 20C110.524 21.4766 110.752 22.725 111.208 23.7452C111.671 24.7592 112.307 25.5292 113.119 26.0551C113.93 26.5748 114.864 26.8346 115.923 26.8346C116.981 26.8346 117.916 26.5748 118.727 26.0551C119.538 25.5292 120.172 24.7592 120.628 23.7452C121.091 22.725 121.322 21.4766 121.322 20Z" fill="#311D0D"/>
</svg>
