<svg width="194" height="148" viewBox="0 0 194 148" fill="none" xmlns="http://www.w3.org/2000/svg">
<path d="M183.099 2.5V4.51286" stroke="#ECCFB6" stroke-width="2" stroke-linecap="round" stroke-linejoin="round"/>
<path d="M183.099 6.78564V8.7985" stroke="#ECCFB6" stroke-width="2" stroke-linecap="round" stroke-linejoin="round"/>
<path d="M186.151 5.64648H184.199" stroke="#ECCFB6" stroke-width="2" stroke-linecap="round" stroke-linejoin="round"/>
<path d="M181.999 5.64648H180.047" stroke="#ECCFB6" stroke-width="2" stroke-linecap="round" stroke-linejoin="round"/>
<path d="M10.0996 13.5V15.5129" stroke="#ECCFB6" stroke-width="2" stroke-linecap="round" stroke-linejoin="round"/>
<path d="M10.0996 17.7856V19.7985" stroke="#ECCFB6" stroke-width="2" stroke-linecap="round" stroke-linejoin="round"/>
<path d="M13.1512 16.6519H11.1992" stroke="#ECCFB6" stroke-width="2" stroke-linecap="round" stroke-linejoin="round"/>
<path d="M8.9989 16.6519H7.04688" stroke="#ECCFB6" stroke-width="2" stroke-linecap="round" stroke-linejoin="round"/>
<path d="M85.0996 1.5V3.51286" stroke="#ECCFB6" stroke-width="2" stroke-linecap="round" stroke-linejoin="round"/>
<path d="M85.0996 5.7854V7.79826" stroke="#ECCFB6" stroke-width="2" stroke-linecap="round" stroke-linejoin="round"/>
<path d="M88.1512 4.64648H86.1992" stroke="#ECCFB6" stroke-width="2" stroke-linecap="round" stroke-linejoin="round"/>
<path d="M83.9989 4.64648H82.0469" stroke="#ECCFB6" stroke-width="2" stroke-linecap="round" stroke-linejoin="round"/>
<path d="M144.1 22.5V24.5129" stroke="#ECCFB6" stroke-width="2" stroke-linecap="round" stroke-linejoin="round"/>
<path d="M144.1 26.7854V28.7983" stroke="#ECCFB6" stroke-width="2" stroke-linecap="round" stroke-linejoin="round"/>
<path d="M147.151 25.6465H145.199" stroke="#ECCFB6" stroke-width="2" stroke-linecap="round" stroke-linejoin="round"/>
<path d="M142.999 25.6465H141.047" stroke="#ECCFB6" stroke-width="2" stroke-linecap="round" stroke-linejoin="round"/>
<path d="M45.9145 26.855C45.9533 27.3914 46.7274 27.4633 46.8767 26.9435L53.4683 10.7466C53.5347 10.5033 53.4019 10.2545 53.1586 10.1715L45.2952 7.52826C44.9302 7.40661 44.5597 7.69415 44.5874 8.07571L45.9145 26.8605V26.855Z" fill="#ECCFB6"/>
<path d="M55.4811 31.3947C55.0719 31.8924 55.6249 32.6002 56.2055 32.3237L68.8246 24.6981C69.1619 24.5377 69.2725 24.1119 69.0569 23.8078L65.9989 19.7323C65.7887 19.4558 65.374 19.4447 65.1528 19.7102L55.4811 31.3947Z" fill="#ECCFB6"/>
<path d="M40.7337 31.3952C41.1429 31.8929 40.5899 32.6007 40.0093 32.3242L27.3902 24.6986C27.0529 24.5382 26.9423 24.1124 27.158 23.8083L30.216 19.7328C30.4261 19.4563 30.8409 19.4452 31.062 19.7107L40.7337 31.3952Z" fill="#ECCFB6"/>
<path d="M176.222 145.476L159.445 43.7769C159.307 42.9363 158.582 42.3225 157.731 42.3225H1.78401C0.711228 42.3225 -0.101656 43.2847 0.0697691 44.3409L16.8473 146.04C16.9855 146.88 17.7099 147.494 18.5615 147.494H174.508C175.581 147.494 176.394 146.532 176.222 145.476Z" fill="#ECCFB6"/>
<path d="M130.634 40.3098L132.625 28.2271C132.802 27.1709 131.984 26.2087 130.911 26.2087H85.5496C84.6981 26.2087 83.9737 26.8226 83.8354 27.6631L81.6567 40.8738C81.5184 41.7144 80.794 42.3282 79.9424 42.3282H36.2678C35.4162 42.3282 34.6918 42.942 34.5536 43.7825L17.7761 145.482C17.5991 146.538 18.4176 147.5 19.4903 147.5H175.437C176.289 147.5 177.013 146.886 177.151 146.046L193.929 44.3466C194.106 43.2904 193.287 42.3282 192.214 42.3282H132.332C131.259 42.3282 130.446 41.366 130.618 40.3098H130.634Z" fill="#FBF4EF"/>
<path d="M103.054 90.3725C103.693 89.3601 103.391 88.0102 102.367 87.3714C101.354 86.7327 100.005 87.034 99.3658 88.0584C98.7271 89.0708 99.0284 90.4207 100.053 91.0595C101.065 91.6982 102.415 91.3969 103.054 90.3725Z" fill="#ECCFB6"/>
<path d="M116.791 90.3725C117.43 89.348 117.129 88.0102 116.104 87.3714C115.092 86.7327 113.742 87.034 113.103 88.0584C112.464 89.0708 112.766 90.4207 113.79 91.0595C114.803 91.6983 116.152 91.3969 116.791 90.3725Z" fill="#ECCFB6"/>
<path d="M113.295 102.359C113.295 102.359 111.209 99.9186 108.844 99.7553C105.342 99.5214 102.853 101.993 102.853 101.993" stroke="#ECCFB6" stroke-width="2" stroke-linecap="round" stroke-linejoin="round"/>
</svg>
