<svg width="488" height="475" viewBox="0 0 488 475" fill="none" xmlns="http://www.w3.org/2000/svg">
<path d="M421 266L488 266" stroke="#311D0D" stroke-width="2.17952" stroke-linecap="round" stroke-linejoin="round"/>
<path d="M2 266H203" stroke="#311D0D" stroke-width="2.17952" stroke-linecap="round" stroke-linejoin="round"/>
<path d="M366.064 124.388C364.647 124.418 357.162 269.905 356.044 275.318L265.787 285.413L265.623 304.484L406.95 303.828C408.382 303.798 409.575 302.844 409.828 301.532L462.464 137.57C462.807 135.825 461.376 134.23 459.482 134.274L366.079 124.403L366.064 124.388Z" stroke="#311D0D" stroke-width="2.18" stroke-linecap="round" stroke-linejoin="round"/>
<path d="M451.042 145.055L430.51 207.95L405.742 283.773" stroke="#311D0D" stroke-width="2.18" stroke-linecap="round" stroke-linejoin="round"/>
<path d="M270.588 293.451L411.14 292.407" stroke="#311D0D" stroke-width="2.18" stroke-linecap="round" stroke-linejoin="round"/>
<path d="M386.283 305.588L409.097 463.69L417.164 463.541L397.362 304.469" stroke="#311D0D" stroke-width="2.18" stroke-linecap="round" stroke-linejoin="round"/>
<path d="M341.326 367.871L270.379 430.2C270.379 430.2 184.283 298.088 191.112 276.467C201.013 245.094 289.481 204.908 289.481 204.908L352.853 264.374L270.394 291.571L341.341 367.871H341.326Z" fill="#311D0D"/>
<path d="M308.045 214.526C308.045 214.526 225.825 244.661 210.646 273.992C195.466 303.322 182.091 436.612 182.091 436.612H280.922L285.678 298.461C285.678 298.461 369.136 298.729 382.943 281.119C396.751 263.524 390.19 215.555 390.19 215.555L308.06 214.526H308.045Z" fill="#FF999A"/>
<path opacity="0.25" d="M314.516 214.615V220.207H301.961V216.926C300.932 217.314 300.291 217.627 298.83 218.194V220.207H293.879C291.986 220.997 289.078 222.414 286.916 223.338H298.83V235.893H286.275V223.636C285.291 224.069 284.172 224.606 283.143 225.053V235.893H270.544V230.749C269.395 231.301 268.575 231.599 267.397 232.166V235.893H260.091C257.288 237.34 254.484 238.816 251.711 240.352V251.58H239.156V247.956C238.112 248.627 237.038 249.284 236.024 249.969V251.595H233.475C231.983 252.624 230.761 253.682 229.359 254.741H236.024V267.296H223.469V259.542C222.47 260.407 221.247 261.227 220.338 262.092V267.296H215.343C214.463 268.34 213.717 269.384 212.987 270.427H220.338V283.027H207.783V280.776C206.709 283.758 205.68 287.456 204.651 291.273V298.729H202.892C202.638 299.758 202.4 300.801 202.161 301.86H204.666V314.415H199.328C199.134 315.414 198.985 316.547 198.791 317.547H204.681V330.102H196.495C196.316 331.175 196.137 332.159 195.958 333.248H204.696V345.848H193.901C193.737 346.892 193.572 347.935 193.408 348.979H204.681V361.534H192.081V357.613C190.859 365.888 189.979 372.553 188.935 380.367V392.922H187.31C187.176 393.966 187.041 395.039 186.922 396.068H188.935V408.623H185.312C185.207 409.533 185.028 410.89 184.924 411.77H188.95V424.37H183.508C183.373 425.592 183.269 426.561 183.165 427.501H188.95V436.582H192.096V427.501H204.696V436.582H207.827V427.501H220.383V436.582H223.514V427.501H236.069V436.582H239.2V427.501H251.756V436.582H254.902V427.501H267.457V436.582H270.603V427.501H281.294L281.444 424.37H270.603V411.77H281.831L281.98 408.623H270.603V396.068H282.368L282.517 392.922H270.603V380.367H282.92L283.069 377.236H270.618V364.68H283.218V372.524L285.768 298.46H286.349V286.144H298.904V298.207C299.769 298.177 301.111 298.043 302.036 298.013V286.144H314.591V297.282C315.664 297.223 316.619 297.163 317.722 297.088V286.144H330.277V296.253C331.321 296.149 332.365 296.015 333.409 295.91V286.144H345.964V294.33C347.067 294.166 348.022 293.927 349.095 293.733V286.129H361.695V291.273C362.873 290.975 363.723 290.557 364.826 290.244V286.129H376.099C377.978 285.16 379.544 284.116 380.856 282.997H380.513V270.398H388.013C388.326 269.384 388.624 268.325 388.893 267.266H380.513V254.711H391.055C391.159 253.652 391.279 252.639 391.353 251.565H380.513V239.01H391.651C391.651 237.832 391.532 236.997 391.502 235.878H380.513V223.323H391.01C390.846 221.4 390.846 221.445 390.712 220.192H380.513V215.435L377.381 215.391V220.192H364.826V215.242L361.695 215.197V220.192H349.095V214.988H345.964V220.192H333.409V214.794H330.277V220.192H317.722V214.6H314.591L314.516 214.615ZM301.961 223.353H314.516V235.908H301.961V223.353ZM317.663 223.353H330.218V235.908H317.663V223.353ZM333.349 223.353H345.904V235.908H333.349V223.353ZM349.05 223.353H361.65V235.908H349.05V223.353ZM364.797 223.353H377.352V235.908H364.797V223.353ZM254.827 239.04H267.382V251.595H254.827V239.04ZM270.529 239.04H283.128V251.595H270.529V239.04ZM286.275 239.04H298.83V251.595H286.275V239.04ZM301.961 239.04H314.516V251.595H301.961V239.04ZM317.663 239.04H330.218V251.595H317.663V239.04ZM333.349 239.04H345.904V251.595H333.349V239.04ZM349.05 239.04H361.65V251.595H349.05V239.04ZM364.797 239.04H377.352V251.595H364.797V239.04ZM239.141 254.741H251.696V267.296H239.141V254.741ZM254.827 254.741H267.382V267.296H254.827V254.741ZM270.529 254.741H283.128V267.296H270.529V254.741ZM286.275 254.741H298.83V267.296H286.275V254.741ZM301.961 254.741H314.516V267.296H301.961V254.741ZM317.663 254.741H330.218V267.296H317.663V254.741ZM333.349 254.741H345.904V267.296H333.349V254.741ZM349.05 254.741H361.65V267.296H349.05V254.741ZM364.797 254.741H377.352V267.296H364.797V254.741ZM223.439 270.427H235.995V283.027H223.439V270.427ZM239.141 270.427H251.696V283.027H239.141V270.427ZM254.827 270.427H267.382V283.027H254.827V270.427ZM270.529 270.427H283.128V283.027H270.529V270.427ZM286.275 270.427H298.83V283.027H286.275V270.427ZM301.961 270.427H314.516V283.027H301.961V270.427ZM317.663 270.427H330.218V283.027H317.663V270.427ZM333.349 270.427H345.904V283.027H333.349V270.427ZM349.05 270.427H361.65V283.027H349.05V270.427ZM364.797 270.427H377.352V283.027H364.797V270.427ZM207.753 286.174H220.308V298.729H207.753V286.174ZM223.439 286.174H235.995V298.729H223.439V286.174ZM239.141 286.174H251.696V298.729H239.141V286.174ZM254.827 286.174H267.382V298.729H254.827V286.174ZM270.529 286.174H283.128V298.729H270.529V286.174ZM207.753 301.875H220.308V314.43H207.753V301.875ZM223.439 301.875H235.995V314.43H223.439V301.875ZM239.141 301.875H251.696V314.43H239.141V301.875ZM254.827 301.875H267.382V314.43H254.827V301.875ZM270.529 301.875H283.128V314.43H270.529V301.875ZM207.753 317.561H220.308V330.117H207.753V317.561ZM223.439 317.561H235.995V330.117H223.439V317.561ZM239.141 317.561H251.696V330.117H239.141V317.561ZM254.827 317.561H267.382V330.117H254.827V317.561ZM270.529 317.561H283.128V330.117H270.529V317.561ZM207.753 333.263H220.308V345.863H207.753V333.263ZM223.439 333.263H235.995V345.863H223.439V333.263ZM239.141 333.263H251.696V345.863H239.141V333.263ZM254.827 333.263H267.382V345.863H254.827V333.263ZM270.529 333.263H283.128V345.863H270.529V333.263ZM207.753 349.009H220.308V361.564H207.753V349.009ZM223.439 349.009H235.995V361.564H223.439V349.009ZM239.141 349.009H251.696V361.564H239.141V349.009ZM254.827 349.009H267.382V361.564H254.827V349.009ZM270.529 349.009H283.128V361.564H270.529V349.009ZM192.007 364.695H204.607V377.25H192.007V364.695ZM207.753 364.695H220.308V377.25H207.753V364.695ZM223.439 364.695H235.995V377.25H223.439V364.695ZM239.141 364.695H251.696V377.25H239.141V364.695ZM254.827 364.695H267.382V377.25H254.827V364.695ZM192.007 380.397H204.607V392.952H192.007V380.397ZM207.753 380.397H220.308V392.952H207.753V380.397ZM223.439 380.397H235.995V392.952H223.439V380.397ZM239.141 380.397H251.696V392.952H239.141V380.397ZM254.827 380.397H267.382V392.952H254.827V380.397ZM192.007 396.083H204.607V408.638H192.007V396.083ZM207.753 396.083H220.308V408.638H207.753V396.083ZM223.439 396.083H235.995V408.638H223.439V396.083ZM239.141 396.083H251.696V408.638H239.141V396.083ZM254.827 396.083H267.382V408.638H254.827V396.083ZM192.007 411.785H204.607V424.384H192.007V411.785ZM207.753 411.785H220.308V424.384H207.753V411.785ZM223.439 411.785H235.995V424.384H223.439V411.785ZM239.141 411.785H251.696V424.384H239.141V411.785ZM254.827 411.785H267.382V424.384H254.827V411.785Z" fill="#FBF4EF"/>
<path d="M248.132 116.083C248.132 116.083 277.82 100.128 326.952 101.231C358.683 101.947 394.649 113.22 416.583 143.549C431.717 164.469 438.756 207.398 425.455 225.277C409.888 246.212 378.366 239.219 365.646 230.913C358.638 226.335 356.372 220.58 356.372 220.58C356.372 220.58 329.084 234.73 300.813 226.917C261.657 216.092 257.347 180.573 257.347 180.573C257.347 180.573 222.619 196.394 199.164 180.484C182.121 168.928 187.25 98.1449 195.392 75.4054C202.624 55.186 222.768 49.4602 238.783 57.7955C261.328 69.5305 248.147 116.083 248.147 116.083H248.132Z" fill="#AB652B"/>
<path d="M313.025 107.166L313.935 130.1L331.44 111.162L342.34 133.41L355.924 112.728" stroke="#FBF4EF" stroke-width="2.18" stroke-linecap="round" stroke-linejoin="round"/>
<path d="M283.039 131.531C283.039 131.531 277.582 140.09 274.942 148.127C272.318 156.164 270.394 165.558 270.394 165.558" stroke="#FBF4EF" stroke-width="2.18" stroke-linecap="round" stroke-linejoin="round"/>
<path d="M368.211 142.595C368.211 142.595 370.865 150.006 371.984 158.535C373.102 167.064 372.61 173.446 372.61 173.446" stroke="#FBF4EF" stroke-width="2.18" stroke-linecap="round" stroke-linejoin="round"/>
<path d="M228.643 160.727C224.289 160.727 220.74 164.469 220.74 169.107L229.27 220.356C229.27 225.008 232.804 228.796 237.158 228.796H237.202L354.687 229.392C356.58 229.392 358.161 227.812 358.161 225.918V223.458C358.161 221.564 356.58 220.028 354.687 220.028L331.321 219.432L322.986 169.107C322.986 164.469 319.452 160.727 315.083 160.727H228.614H228.643Z" fill="#FBF4EF"/>
<path d="M265.623 177.457C265.623 174.818 267.755 172.686 270.394 172.686C273.034 172.686 275.166 174.818 275.166 177.457C275.166 180.096 273.034 182.229 270.394 182.229C267.755 182.229 265.623 180.096 265.623 177.457Z" stroke="#FF999A" stroke-width="2.18" stroke-linecap="round" stroke-linejoin="round"/>
<path d="M238.768 219.148H323.06" stroke="#FF999A" stroke-width="2.18" stroke-linecap="round" stroke-linejoin="round"/>
<path d="M313.264 69.1876C313.264 56.1254 323.851 45.5386 336.913 45.5386C349.975 45.5386 360.562 56.1254 360.562 69.1876C360.562 82.2497 349.975 92.8365 336.913 92.8365C323.851 92.8365 313.264 82.2497 313.264 69.1876Z" fill="#FBF4EF"/>
<path d="M333.871 46.1946C333.871 46.1946 332.917 58.1682 340.969 69.5901C348.767 80.6541 355.954 82.5777 355.954 82.5777C355.954 82.5777 367.182 63.6555 352.241 51.1153C346.322 46.1499 333.871 46.1946 333.871 46.1946Z" fill="#311D0D"/>
<path d="M313.353 69.5155C313.353 56.6323 323.791 46.1946 336.674 46.1946C349.557 46.1946 359.995 56.6323 359.995 69.5155C359.995 82.3987 349.557 92.8365 336.674 92.8365C323.791 92.8365 313.353 82.3987 313.353 69.5155Z" stroke="#311D0D" stroke-width="2.18" stroke-linejoin="round"/>
<path d="M331.5 69.0234C331.694 67.577 333.006 66.578 334.437 66.7718C335.869 66.9657 336.853 68.2928 336.659 69.7242C336.465 71.1557 335.138 72.1697 333.722 71.9758C332.305 71.782 331.306 70.4549 331.5 69.0234Z" fill="#AB652B"/>
<path d="M327.235 62.2687C327.37 61.2398 328.324 60.539 329.338 60.6732C330.367 60.8223 331.068 61.7617 330.933 62.7757C330.799 63.8045 329.845 64.5053 328.831 64.3711C327.802 64.2369 327.101 63.2826 327.235 62.2687Z" fill="#311D0D"/>
<path d="M317.782 56.1107C317.916 55.0818 318.87 54.381 319.884 54.5152C320.913 54.6494 321.614 55.6037 321.48 56.6177C321.346 57.6466 320.391 58.3474 319.377 58.2132C318.348 58.079 317.648 57.1247 317.782 56.1107Z" fill="#311D0D"/>
<path d="M326.892 70.127C326.892 70.127 325.625 72.5724 323.672 73.1688C320.794 74.0486 318.214 72.468 318.214 72.468" stroke="#311D0D" stroke-width="2.18" stroke-linecap="round" stroke-linejoin="round"/>
<path d="M324.283 58.884L317.081 66.0115L322.046 67.7114" stroke="#311D0D" stroke-width="2.18" stroke-linecap="round" stroke-linejoin="round"/>
<path d="M385.866 184.987C381.079 175.861 371.82 171.463 357.923 174.296C336.868 178.59 322.225 194.381 328.339 199.898C331.276 202.537 336.301 198.675 342.326 194.992C347.887 191.592 351.153 190.519 351.153 190.519C351.153 190.519 342.176 193.501 338.464 199.451C331.664 210.306 341.088 212.871 341.088 212.871C341.088 212.871 344.756 208.427 348.394 204.759C352.033 201.091 357.475 199.167 357.475 199.167C357.475 199.167 350.706 202.254 346.993 206.489C343.235 210.783 340.521 213.288 344.517 215.629C350.035 218.85 368.539 203.954 368.539 203.954C368.539 203.954 380.692 215.629 385.583 210.276C390.399 204.998 390.995 194.798 385.866 185.002V184.987Z" stroke="#311D0D" stroke-width="2.18" stroke-linecap="round" stroke-linejoin="round"/>
<path d="M260.926 443.993C260.926 451.001 261.478 470.251 261.478 470.251C261.478 470.251 179.094 475.246 170.848 471.235C165.286 468.521 177.901 460.887 190.098 453.834C201.699 447.124 215.343 442.218 215.343 442.218" stroke="#311D0D" stroke-width="2.18" stroke-linecap="round" stroke-linejoin="round"/>
<path d="M212.45 454.073L198.404 441.89" stroke="#AB652B" stroke-width="2.18" stroke-linecap="round" stroke-linejoin="round"/>
<path d="M205.442 457.174L191.396 444.991" stroke="#AB652B" stroke-width="2.18" stroke-linecap="round" stroke-linejoin="round"/>
<path d="M333.647 379.756C338.672 384.646 352.853 397.649 352.853 397.649C352.853 397.649 299.024 460.201 290.39 463.332C284.575 465.435 287.885 451.075 291.33 437.402C294.61 424.414 300.604 411.203 300.604 411.203" stroke="#311D0D" stroke-width="2.18" stroke-linecap="round" stroke-linejoin="round"/>
<path d="M307.076 421.536L288.541 423.117" stroke="#AB652B" stroke-width="2.18" stroke-linecap="round" stroke-linejoin="round"/>
<path d="M304.407 428.739L285.872 430.319" stroke="#AB652B" stroke-width="2.18" stroke-linecap="round" stroke-linejoin="round"/>
<path d="M235.95 58.7496C235.95 58.7496 239.036 51.5326 241.705 40.2449C245.925 22.3963 250.533 2.71368 243.972 1.58044C241.735 1.19275 239.707 1.75937 236.084 7.78345C232.461 13.8075 232.461 23.0226 232.461 23.0226" stroke="#311D0D" stroke-width="2.18" stroke-linecap="round" stroke-linejoin="round"/>
<path d="M230.134 28.5545C230.134 28.5545 233.251 26.1687 232.282 22.8137C230.582 16.9388 225.05 14.5381 218.459 13.9118C211.868 13.2855 206.53 15.7757 203.936 19.7271C202.027 22.6199 203.011 27.4511 203.011 27.4511C203.011 27.4511 208.737 22.3664 214.06 22.5304C224.483 22.8286 230.149 28.5694 230.149 28.5694L230.134 28.5545Z" stroke="#311D0D" stroke-width="2.18" stroke-linejoin="round"/>
<path d="M225.497 36.5322C225.497 36.5322 230.507 34.8621 230.582 31.3729C230.656 27.8688 223.514 23.5148 216.908 22.8736C210.318 22.2324 202.251 27.5557 200.864 30.6572C199.015 34.7726 201.58 38.8434 201.58 38.8434C201.58 38.8434 208.156 34.6235 213.479 34.7876C218.802 34.9516 225.497 36.5471 225.497 36.5471V36.5322Z" stroke="#311D0D" stroke-width="2.18" stroke-linejoin="round"/>
<path d="M208.707 45.7024C208.707 45.7024 225.751 47.2234 226.049 41.408C226.362 35.5927 221.158 35.2348 215.03 34.8024C208.901 34.37 200.253 37.3075 200.208 42.4965C200.104 53.0685 211.376 64.2518 217.013 66.235" stroke="#311D0D" stroke-width="2.18" stroke-linecap="round" stroke-linejoin="round"/>
<path d="M230.134 33.3411C230.134 33.3411 227.406 38.0381 225.989 42.6158C224.573 47.1935 224.468 51.6519 224.468 51.6519" stroke="#311D0D" stroke-width="2.18" stroke-linecap="round" stroke-linejoin="round"/>
</svg>
