<svg width="489" height="500" viewBox="0 0 489 500" fill="none" xmlns="http://www.w3.org/2000/svg">
<g clip-path="url(#clip0_73_6375)">
<path d="M339.166 30.5132V35.3408" stroke="#311D0D" stroke-width="2.17952" stroke-linecap="round" stroke-linejoin="round"/>
<path d="M339.166 40.7786V45.6062" stroke="#311D0D" stroke-width="2.17952" stroke-linecap="round" stroke-linejoin="round"/>
<path d="M331.614 38.0542H336.441" stroke="#311D0D" stroke-width="2.17952" stroke-linecap="round" stroke-linejoin="round"/>
<path d="M341.879 38.0542H346.707" stroke="#311D0D" stroke-width="2.17952" stroke-linecap="round" stroke-linejoin="round"/>
<path d="M198.347 109.771V114.599" stroke="#311D0D" stroke-width="2.17952" stroke-linecap="round" stroke-linejoin="round"/>
<path d="M198.347 120.037V124.864" stroke="#311D0D" stroke-width="2.17952" stroke-linecap="round" stroke-linejoin="round"/>
<path d="M190.806 117.312H195.634" stroke="#311D0D" stroke-width="2.17952" stroke-linecap="round" stroke-linejoin="round"/>
<path d="M201.072 117.312H205.899" stroke="#311D0D" stroke-width="2.17952" stroke-linecap="round" stroke-linejoin="round"/>
<path d="M451.062 222.823V227.651" stroke="#311D0D" stroke-width="2.17952" stroke-linecap="round" stroke-linejoin="round"/>
<path d="M451.062 233.077V237.905" stroke="#311D0D" stroke-width="2.17952" stroke-linecap="round" stroke-linejoin="round"/>
<path d="M443.51 230.364H448.338" stroke="#311D0D" stroke-width="2.17952" stroke-linecap="round" stroke-linejoin="round"/>
<path d="M453.776 230.364H458.603" stroke="#311D0D" stroke-width="2.17952" stroke-linecap="round" stroke-linejoin="round"/>
<path d="M460.892 345.682H487.242" stroke="#311D0D" stroke-width="2.17952" stroke-linecap="round" stroke-linejoin="round"/>
<path d="M1.08984 345.682H222.049" stroke="#311D0D" stroke-width="2.17952" stroke-linecap="round" stroke-linejoin="round"/>
<path d="M286.182 411.493C286.182 403.581 322.569 397.173 367.456 397.173C412.343 397.173 448.73 403.581 448.73 411.493C448.73 419.404 412.343 425.812 367.456 425.812C322.569 425.812 286.182 419.404 286.182 411.493Z" fill="#AB652B"/>
<path d="M43.9934 425.594C48.5813 425.594 54.1609 426.619 58.4981 428.526C61.7129 429.943 63.1078 431.741 63.1187 431.752C63.1187 431.752 63.4892 434.313 63.6527 438.083C65.854 438.356 68.0662 438.77 70.1476 439.38C77.024 441.407 81.3177 445.047 80.86 450.855C80.4132 456.544 75.5637 459.377 68.295 460.303C65.6687 460.641 62.9443 460.674 60.3071 460.554C57.4084 467.049 52.2429 472.073 42.9582 471.909C19.136 471.495 23.4406 432.024 23.4733 431.752C23.4733 431.752 24.5412 429.954 28.4535 428.21C32.8997 426.227 38.6209 425.594 44.0043 425.594H43.9934ZM43.9934 427.393C38.8716 427.393 33.6516 428.079 29.3907 429.899C26.7098 431.043 25.7509 432.122 25.1297 432.787C27.7996 434.465 33.8805 437.429 43.9389 437.451C53.616 437.473 59.1193 434.541 61.5385 432.841C60.8193 432.111 60.0238 431.021 57.0814 429.834C52.2211 427.861 48.3089 427.393 43.9934 427.393ZM63.6527 442.802C63.5873 446.877 63.0206 451.389 61.8219 455.824C63.7943 455.868 65.7995 455.922 67.6957 455.683C73.0246 455.007 75.9996 453.274 76.2176 450.485C76.4464 447.52 73.8637 445.319 68.8508 443.848C67.2162 443.368 65.429 443.052 63.6527 442.813V442.802Z" fill="#FF999A"/>
<path d="M56.1552 435.631C56.1552 435.631 51.2513 432.09 43.5031 432.068C35.6024 432.046 30.6658 435.391 30.6658 435.391C30.6658 435.391 37.0191 437.92 43.5031 437.767C51.3712 437.593 56.1552 435.631 56.1552 435.631Z" fill="#311D0D"/>
<path d="M47.0012 377.907C47.0012 377.907 44.4294 381.743 45.748 388.107C47.0666 394.471 49.2461 396.454 49.9326 403.069C50.6301 409.684 47.8076 414.599 47.8076 414.599" stroke="#311D0D" stroke-width="2.17952" stroke-linecap="round" stroke-linejoin="round"/>
<path d="M44.6146 400.203C44.6146 400.203 45.4538 405.575 44.789 408.812C43.514 415.056 41.5742 418.108 41.5742 418.108" stroke="#311D0D" stroke-width="2.17952" stroke-linecap="round" stroke-linejoin="round"/>
<path d="M160.478 368.371H281.539L298.289 387.431H177.227L160.478 368.371Z" stroke="#FF999A" stroke-width="2.17952" stroke-linecap="round" stroke-linejoin="round"/>
<path d="M298.289 396.977H177.227L160.478 377.917" stroke="#FF999A" stroke-width="2.17952" stroke-linecap="round" stroke-linejoin="round"/>
<path d="M160.478 368.371V377.906" stroke="#FF999A" stroke-width="2.17952" stroke-linecap="round" stroke-linejoin="round"/>
<path d="M177.129 387.442V396.977" stroke="#FF999A" stroke-width="2.17952" stroke-linecap="round" stroke-linejoin="round"/>
<path d="M298.289 387.442V396.977" stroke="#FF999A" stroke-width="2.17952" stroke-linecap="round" stroke-linejoin="round"/>
<path d="M173.838 373.722H182.622L186.196 377.612H177.413L173.838 373.722Z" fill="#FF999A"/>
<path d="M190.065 373.722H198.848L202.423 377.612H193.639L190.065 373.722Z" fill="#FF999A"/>
<path d="M250.132 373.722H258.916L262.49 377.612H253.707L250.132 373.722Z" fill="#FF999A"/>
<path d="M266.37 373.722H275.153L278.728 377.612H269.944L266.37 373.722Z" fill="#FF999A"/>
<path d="M208.558 373.722H240.444L244.019 377.612H212.132L208.558 373.722Z" fill="#FF999A"/>
<path d="M147.641 408.758C123.96 408.758 116.125 420.876 116.125 435.794H179.146C179.146 420.876 172.182 408.758 147.63 408.758H147.641Z" stroke="#FF999A" stroke-width="2.17952" stroke-linecap="round" stroke-linejoin="round"/>
<path d="M124.243 429.333H172.422" stroke="#FF999A" stroke-width="2.17952" stroke-linecap="round" stroke-linejoin="round"/>
<path d="M33.532 345.682L27.9524 234.668C28.0723 225.7 35.4281 222.016 43.6994 222.518L99.3207 222.016" stroke="#311D0D" stroke-width="2.17952" stroke-linecap="round" stroke-linejoin="round"/>
<path d="M41.8469 345.671L35.7878 240.717C35.9186 233.099 39.1225 231.181 43.1764 230.364" stroke="#311D0D" stroke-width="2.17952" stroke-linecap="round" stroke-linejoin="round"/>
<path d="M127.959 322.427C109.88 333.412 109.924 345.682 109.924 345.682H209.201C209.201 345.682 204.449 331.33 195.742 325.86C177.685 314.515 140.895 314.548 127.959 322.416V322.427Z" fill="#311D0D"/>
<path d="M215.783 302.354C215.783 302.354 202.804 334.589 165.404 338.49C134.029 341.77 122.14 332.682 122.14 332.682C122.14 332.682 150.899 360.503 149.569 378.212C148.447 393.032 133.55 407.341 112.18 405.238C90.8096 403.124 44.4077 373.602 46.6962 317.12C48.8321 264.452 77.035 241.785 90.2865 231.53C114.359 212.895 147.107 205.18 179.385 207.643C211.795 210.116 243.343 225.558 262.479 243.877C282.019 262.577 298.289 292.884 295.728 316.869C293.352 339.133 282.803 344.582 282.803 344.582H236.914C236.914 344.582 235.715 332.093 230.31 320.422C224.904 308.75 215.794 302.343 215.794 302.343L215.783 302.354Z" fill="#AB652B"/>
<path opacity="0.3" d="M167.256 207.207C164.913 207.207 162.603 207.403 160.271 207.512C158.93 208.656 158.026 210.302 158.026 212.209C158.026 215.674 160.827 218.475 164.292 218.475C167.757 218.475 170.591 215.674 170.591 212.209C170.591 210.127 169.501 208.373 167.932 207.239C167.703 207.239 167.474 207.207 167.256 207.207ZM193.89 209.691C193.552 210.454 193.378 211.315 193.378 212.209C193.378 215.674 196.178 218.475 199.644 218.475C202.989 218.475 205.692 215.849 205.877 212.547C201.932 211.413 197.944 210.465 193.89 209.691ZM135.01 210.988C130.978 211.925 127.011 213.026 123.121 214.323C124.004 216.742 126.259 218.475 128.973 218.475C132.438 218.475 135.239 215.674 135.239 212.209C135.239 211.773 135.087 211.391 134.999 210.977L135.01 210.988ZM111.886 229.307C108.42 229.307 105.587 232.108 105.587 235.573C105.587 239.039 108.42 241.839 111.886 241.839C115.351 241.839 118.152 239.039 118.152 235.573C118.152 232.108 115.351 229.307 111.886 229.307ZM147.205 229.307C143.739 229.307 140.939 232.108 140.939 235.573C140.939 239.039 143.739 241.839 147.205 241.839C150.67 241.839 153.503 239.039 153.503 235.573C153.503 232.108 150.67 229.307 147.205 229.307ZM182.546 229.307C179.08 229.307 176.279 232.108 176.279 235.573C176.279 239.039 179.08 241.839 182.546 241.839C186.011 241.839 188.812 239.039 188.812 235.573C188.812 232.108 186.011 229.307 182.546 229.307ZM217.897 229.307C214.432 229.307 211.631 232.108 211.631 235.573C211.631 239.039 214.432 241.839 217.897 241.839C221.363 241.839 224.163 239.039 224.163 235.573C224.163 232.108 221.363 229.307 217.897 229.307ZM248.04 232.304C247.43 233.274 246.983 234.342 246.983 235.573C246.983 239.039 249.784 241.839 253.249 241.839C255.058 241.839 256.671 241.055 257.815 239.834C254.764 237.241 251.538 234.712 248.04 232.304ZM82.1243 238.33C80.9691 239.344 79.8249 240.27 78.6152 241.425C80.1627 240.88 81.405 239.78 82.1243 238.33ZM93.6321 252.672C90.1667 252.672 87.366 255.505 87.366 258.97C87.366 262.436 90.1667 265.236 93.6321 265.236C97.0975 265.236 99.8982 262.436 99.8982 258.97C99.8982 255.505 97.0975 252.672 93.6321 252.672ZM128.984 252.672C125.518 252.672 122.685 255.505 122.685 258.97C122.685 262.436 125.518 265.236 128.984 265.236C132.449 265.236 135.25 262.436 135.25 258.97C135.25 255.505 132.449 252.672 128.984 252.672ZM164.292 252.672C160.827 252.672 158.026 255.505 158.026 258.97C158.026 262.436 160.827 265.236 164.292 265.236C167.757 265.236 170.591 262.436 170.591 258.97C170.591 255.505 167.757 252.672 164.292 252.672ZM199.644 252.672C196.178 252.672 193.378 255.505 193.378 258.97C193.378 262.436 196.178 265.236 199.644 265.236C203.109 265.236 205.943 262.436 205.943 258.97C205.943 255.505 203.109 252.672 199.644 252.672ZM234.996 252.672C231.53 252.672 228.73 255.505 228.73 258.97C228.73 262.436 231.53 265.236 234.996 265.236C238.461 265.236 241.262 262.436 241.262 258.97C241.262 255.505 238.461 252.672 234.996 252.672ZM270.347 252.672C266.882 252.672 264.081 255.505 264.081 258.97C264.081 262.436 266.882 265.236 270.347 265.236C273.442 265.236 275.894 262.97 276.406 260.027C274.587 257.499 272.658 255.08 270.685 252.737C270.565 252.737 270.467 252.672 270.347 252.672ZM64.4157 258.284C63.108 260.245 61.9419 262.556 60.6996 264.757C62.9663 263.82 64.5464 261.575 64.5464 258.97C64.5464 258.731 64.4375 258.524 64.4157 258.295V258.284ZM76.5338 276.058C73.0684 276.058 70.235 278.858 70.235 282.324C70.235 285.789 73.0684 288.59 76.5338 288.59C79.9992 288.59 82.7999 285.789 82.7999 282.324C82.7999 278.858 79.9992 276.058 76.5338 276.058ZM111.886 276.058C108.42 276.058 105.587 278.858 105.587 282.324C105.587 285.789 108.42 288.59 111.886 288.59C115.351 288.59 118.152 285.789 118.152 282.324C118.152 278.858 115.351 276.058 111.886 276.058ZM147.205 276.058C143.739 276.058 140.939 278.858 140.939 282.324C140.939 285.789 143.739 288.59 147.205 288.59C150.67 288.59 153.503 285.789 153.503 282.324C153.503 278.858 150.67 276.058 147.205 276.058ZM182.546 276.058C179.08 276.058 176.279 278.858 176.279 282.324C176.279 285.789 179.08 288.59 182.546 288.59C186.011 288.59 188.812 285.789 188.812 282.324C188.812 278.858 186.011 276.058 182.546 276.058ZM217.897 276.058C214.432 276.058 211.631 278.858 211.631 282.324C211.631 285.789 214.432 288.59 217.897 288.59C221.363 288.59 224.163 285.789 224.163 282.324C224.163 278.858 221.363 276.058 217.897 276.058ZM253.249 276.058C249.784 276.058 246.983 278.858 246.983 282.324C246.983 285.789 249.784 288.59 253.249 288.59C256.715 288.59 259.515 285.789 259.515 282.324C259.515 278.858 256.715 276.058 253.249 276.058ZM286.345 276.505C284.002 277.409 282.324 279.654 282.324 282.324C282.324 285.789 285.125 288.59 288.59 288.59C289.593 288.59 290.508 288.328 291.347 287.914C289.963 284.078 288.23 280.264 286.345 276.505ZM58.2803 299.422C54.8149 299.422 52.0142 302.223 52.0142 305.688C52.0142 309.154 54.8149 311.954 58.2803 311.954C61.7458 311.954 64.5464 309.154 64.5464 305.688C64.5464 302.223 61.7458 299.422 58.2803 299.422ZM93.6321 299.422C90.1667 299.422 87.366 302.223 87.366 305.688C87.366 309.154 90.1667 311.954 93.6321 311.954C97.0975 311.954 99.8982 309.154 99.8982 305.688C99.8982 302.223 97.0975 299.422 93.6321 299.422ZM128.984 299.422C125.518 299.422 122.685 302.223 122.685 305.688C122.685 309.154 125.518 311.954 128.984 311.954C132.449 311.954 135.25 309.154 135.25 305.688C135.25 302.223 132.449 299.422 128.984 299.422ZM164.292 299.422C160.827 299.422 158.026 302.223 158.026 305.688C158.026 309.154 160.827 311.954 164.292 311.954C167.757 311.954 170.591 309.154 170.591 305.688C170.591 302.223 167.757 299.422 164.292 299.422ZM199.644 299.422C196.178 299.422 193.378 302.223 193.378 305.688C193.378 309.154 196.178 311.954 199.644 311.954C203.109 311.954 205.943 309.154 205.943 305.688C205.943 302.223 203.109 299.422 199.644 299.422ZM234.996 299.422C231.53 299.422 228.73 302.223 228.73 305.688C228.73 309.154 231.53 311.954 234.996 311.954C238.461 311.954 241.262 309.154 241.262 305.688C241.262 302.223 238.461 299.422 234.996 299.422ZM270.347 299.422C266.882 299.422 264.081 302.223 264.081 305.688C264.081 309.154 266.882 311.954 270.347 311.954C273.813 311.954 276.614 309.154 276.614 305.688C276.614 302.223 273.813 299.422 270.347 299.422ZM76.5338 322.787C73.0684 322.787 70.235 325.587 70.235 329.053C70.235 332.518 73.0684 335.352 76.5338 335.352C79.9992 335.352 82.7999 332.518 82.7999 329.053C82.7999 325.587 79.9992 322.787 76.5338 322.787ZM111.886 322.787C108.42 322.787 105.587 325.587 105.587 329.053C105.587 332.518 108.42 335.352 111.886 335.352C115.351 335.352 118.152 332.518 118.152 329.053C118.152 325.587 115.351 322.787 111.886 322.787ZM147.205 322.787C143.739 322.787 140.939 325.587 140.939 329.053C140.939 332.518 143.739 335.352 147.205 335.352C150.67 335.352 153.503 332.518 153.503 329.053C153.503 325.587 150.67 322.787 147.205 322.787ZM182.546 322.787C179.08 322.787 176.279 325.587 176.279 329.053C176.279 331.843 178.121 334.12 180.638 334.948C183.363 333.957 185.935 332.834 188.299 331.581C188.637 330.807 188.812 329.957 188.812 329.064C188.812 325.598 186.011 322.798 182.546 322.798V322.787ZM253.249 322.787C249.784 322.787 246.983 325.587 246.983 329.053C246.983 332.518 249.784 335.352 253.249 335.352C256.715 335.352 259.515 332.518 259.515 329.053C259.515 325.587 256.715 322.787 253.249 322.787ZM288.601 322.787C285.135 322.787 282.335 325.587 282.335 329.053C282.335 332.518 285.135 335.352 288.601 335.352C289.396 335.352 290.148 335.144 290.846 334.872C292.023 332.518 293.102 329.576 294.017 326.089C292.949 324.149 290.977 322.787 288.601 322.787ZM46.8052 326.328C46.8815 327.745 47.0449 329.107 47.1757 330.48C47.2847 330.012 47.4481 329.554 47.4481 329.053C47.4481 328.072 47.1975 327.157 46.8052 326.328ZM58.2803 346.184C54.9784 346.184 52.352 348.766 52.1123 352.003C52.7662 353.747 53.4418 355.447 54.1937 357.114C55.2944 358.084 56.7002 358.716 58.2803 358.716C61.7458 358.716 64.5464 355.915 64.5464 352.45C64.5464 348.984 61.7458 346.184 58.2803 346.184ZM93.6321 346.184C90.1667 346.184 87.366 348.984 87.366 352.45C87.366 355.915 90.1667 358.716 93.6321 358.716C97.0975 358.716 99.8982 355.915 99.8982 352.45C99.8982 348.984 97.0975 346.184 93.6321 346.184ZM128.984 346.184C125.518 346.184 122.685 348.984 122.685 352.45C122.685 355.915 125.518 358.716 128.984 358.716C132.449 358.716 135.25 355.915 135.25 352.45C135.25 348.984 132.449 346.184 128.984 346.184ZM76.5338 369.548C73.0684 369.548 70.235 372.349 70.235 375.814C70.235 379.28 73.0684 382.08 76.5338 382.08C79.9992 382.08 82.7999 379.28 82.7999 375.814C82.7999 372.349 79.9992 369.548 76.5338 369.548ZM111.886 369.548C108.42 369.548 105.587 372.349 105.587 375.814C105.587 379.28 108.42 382.08 111.886 382.08C115.351 382.08 118.152 379.28 118.152 375.814C118.152 372.349 115.351 369.548 111.886 369.548ZM147.205 369.548C143.739 369.548 140.939 372.349 140.939 375.814C140.939 379.28 143.739 382.08 147.205 382.08C147.793 382.08 148.327 381.895 148.872 381.743C149.134 380.577 149.46 379.41 149.548 378.234C149.744 375.596 149.155 372.708 148.218 369.755C147.869 369.701 147.553 369.548 147.194 369.548H147.205ZM93.6321 392.902C91.4199 392.902 89.5673 394.111 88.4558 395.833C92.2481 398.176 95.8879 400.105 99.4187 401.554C99.7239 400.813 99.8982 400.018 99.8982 399.168C99.8982 395.702 97.0975 392.902 93.6321 392.902ZM128.984 392.902C125.518 392.902 122.685 395.702 122.685 399.168C122.685 401.315 123.829 403.135 125.475 404.279C129.006 403.407 132.188 402.023 135.043 400.29C135.108 399.92 135.25 399.56 135.25 399.168C135.25 395.702 132.449 392.902 128.984 392.902Z" fill="#FBF4EF"/>
<path d="M199.753 216.339L192.582 233.982L179.658 216.35L166.319 235.007L155.247 213.963" stroke="#FBF4EF" stroke-width="2.17952" stroke-linecap="round" stroke-linejoin="round"/>
<path d="M176.138 238.036C176.138 236.369 177.489 235.018 179.156 235.018C180.824 235.018 182.175 236.369 182.175 238.036C182.175 239.704 180.824 241.055 179.156 241.055C177.489 241.055 176.138 239.704 176.138 238.036Z" fill="#FBF4EF"/>
<path d="M176.138 251.233C176.138 249.566 177.489 248.214 179.156 248.214C180.824 248.214 182.175 249.566 182.175 251.233C182.175 252.9 180.824 254.252 179.156 254.252C177.489 254.252 176.138 252.9 176.138 251.233Z" fill="#FBF4EF"/>
<path d="M119.667 257.445C119.667 257.445 113.008 267.438 111.82 284.678C109.935 312.118 120.942 328.355 120.942 328.355" stroke="#FBF4EF" stroke-width="2.17952" stroke-linecap="round" stroke-linejoin="round"/>
<path d="M219.379 265.095C219.379 265.095 220.97 273.322 219.913 281.626C218.856 289.941 216.383 298.147 216.383 298.147" stroke="#FBF4EF" stroke-width="2.17952" stroke-linecap="round" stroke-linejoin="round"/>
<path d="M204.221 180.628C209.125 167.986 202.848 153.754 190.206 148.85C177.565 143.946 163.333 150.223 158.429 162.865C153.525 175.506 159.802 189.738 172.443 194.642C185.085 199.546 199.317 193.269 204.221 180.628Z" stroke="#311D0D" stroke-width="2.17952" stroke-linecap="round" stroke-linejoin="round"/>
<path d="M186.959 173.958C187.308 172.465 186.403 170.983 184.932 170.635C183.461 170.286 181.979 171.212 181.63 172.694C181.281 174.187 182.186 175.669 183.657 176.018C185.128 176.367 186.61 175.44 186.959 173.958Z" fill="#AB652B"/>
<path d="M192.255 171.604C192.833 170.689 192.56 169.468 191.634 168.891C190.719 168.313 189.498 168.586 188.921 169.512C188.343 170.427 188.616 171.648 189.542 172.226C190.457 172.803 191.678 172.531 192.255 171.604Z" fill="#311D0D"/>
<path d="M204.057 173.032C204.635 172.106 204.362 170.896 203.436 170.318C202.521 169.741 201.3 170.013 200.723 170.94C200.145 171.855 200.418 173.075 201.344 173.653C202.259 174.231 203.48 173.958 204.057 173.032Z" fill="#311D0D"/>
<path d="M187.21 178.187C187.21 178.187 186.578 181.02 187.744 182.818C189.476 185.477 192.615 185.935 192.615 185.935" stroke="#311D0D" stroke-width="2.17952" stroke-linecap="round" stroke-linejoin="round"/>
<path d="M196.93 170.885L197.911 181.51L192.757 179.527" stroke="#311D0D" stroke-width="2.17952" stroke-linecap="round" stroke-linejoin="round"/>
<path d="M136.503 111.439C131.588 112.234 127.393 115.863 126.151 121.007C124.505 127.861 128.722 134.781 135.588 136.438C138.138 137.048 140.623 136.634 142.911 135.795C141.854 137.353 140.993 139.108 140.524 141.036C138.454 149.656 143.685 158.309 152.305 160.38C154.724 160.957 157.132 160.903 159.421 160.412C156.021 168.596 157.416 177.238 157.416 177.238C157.416 177.238 165.229 178.088 177.097 170.187C185.619 164.51 190.261 157.372 192.386 153.427C193.432 155.476 194.892 157.83 196.952 159.551C199.557 161.731 204.341 163.671 204.341 163.671C204.341 163.671 203.077 159.595 200.527 156.38C198.946 154.386 194.718 148.883 187.046 147.183C180.017 145.624 174.972 147.106 173.054 147.76C172.531 147.935 172.182 148.24 171.692 148.447C173.74 139.838 168.488 131.207 159.879 129.136C156.206 128.254 152.599 128.94 149.428 130.433C150.06 129.365 150.725 128.275 151.03 126.989C152.675 120.135 148.458 113.28 141.592 111.635C139.881 111.221 138.16 111.166 136.514 111.428L136.503 111.439Z" fill="#311D0D"/>
<path d="M123.917 400.486C123.917 400.486 127.905 409.368 133.55 413.476C139.195 417.585 145.941 418.674 151.226 421.366C156.511 424.047 161.568 430.128 165.088 428.983C168.608 427.828 167.202 424.025 163.072 418.5C159.77 414.075 155.52 411.58 155.52 411.58C155.52 411.58 159.192 413.65 163.17 418.304C167.147 422.957 168.433 430.302 172.629 429.648C176.824 428.994 175.429 415.852 167.801 409.182C160.62 402.916 161.317 403.854 161.317 403.854C161.317 403.854 163.148 404.758 167.812 409.172C172.095 413.225 176.813 422.652 180.028 421.802C183.243 420.963 180.344 407.591 171.953 399.778C158.974 387.671 142.148 382.897 142.148 382.897" stroke="#311D0D" stroke-width="2.17952" stroke-linecap="round" stroke-linejoin="round"/>
<path d="M252.889 334.501C252.889 334.501 230.833 337.378 221.864 352.319C217.145 360.176 217.723 362.944 220.327 363.38C222.365 363.729 226.365 359.402 228.719 356.983C230.865 354.771 237.829 350.554 237.829 350.554C237.829 350.554 233.448 352.853 229.536 362.454C225.624 372.055 229.754 375.357 231.977 374.79C233.862 374.31 236.336 370.529 238.439 366.333C241 361.201 245.653 357.8 245.653 357.8C245.653 357.8 236.924 377.373 244.967 377.198C247.975 377.133 251.974 364.132 256.072 362.388C274.51 354.564 275.665 340.234 275.665 340.234" stroke="#311D0D" stroke-width="2.17952" stroke-linecap="round" stroke-linejoin="round"/>
<path d="M289.342 261.989C289.342 255.472 294.627 250.187 301.144 250.187H463.703C470.22 250.187 475.505 255.472 475.505 261.989L460.87 348.221C460.87 354.738 455.584 360.024 449.068 360.024H286.508C279.992 360.024 274.706 354.738 274.706 348.221L289.342 261.989Z" stroke="#311D0D" stroke-width="2.17952" stroke-linecap="round" stroke-linejoin="round"/>
<path d="M301.492 259.45L285.724 346.511" stroke="#311D0D" stroke-width="2.17952" stroke-linecap="round" stroke-linejoin="round"/>
<path d="M372.73 302.757C372.73 297.504 376.991 293.243 382.244 293.243C387.496 293.243 391.757 297.504 391.757 302.757C391.757 308.009 387.496 312.27 382.244 312.27C376.991 312.27 372.73 308.009 372.73 302.757Z" fill="#AB652B"/>
<path d="M346.031 368.066C346.031 368.066 343.634 377.95 335.842 384.641C328.05 391.333 314.853 394.831 314.853 394.831V411.504H415.885V393.163C415.885 393.163 404.606 390.918 398.252 384.641C391.899 378.364 390.471 368.066 390.471 368.066H346.02H346.031Z" stroke="#311D0D" stroke-width="2.17952" stroke-linecap="round" stroke-linejoin="round"/>
<path d="M351.327 374.725C351.327 374.725 348.45 383.802 341.116 390.33C333.782 396.869 323.102 398.765 323.102 398.765V406.927" stroke="#311D0D" stroke-width="2.17952" stroke-linecap="round" stroke-linejoin="round"/>
</g>
<defs>
<clipPath id="clip0_73_6375">
<rect width="488.332" height="499.088" fill="white"/>
</clipPath>
</defs>
</svg>
